###########  Thx Hive - CM8 Doing It Right The First Time  ###########

The.Company.You.Keep.2012.DVDRip.XVID.AC3.HQ.Hive-CM8

General
Complete name                  : The.Company.You.Keep.2012.DVDRip.XVID.AC3.HQ.Hive-CM8.avi
Format                         : AVI
Format/Info                    : Audio Video Interleave
File size                      : 1.60 GiB
Duration                       : 1h 57mn
Overall bit rate               : 1 957 Kbps
Writing application            : Nandub v1.0rc2
Writing library                : Nandub build 1853/release

Video
ID                             : 0
Format                         : MPEG-4 Visual
Format profile                 : Advanced Simple@L5
Format settings, BVOP          : 2
Format settings, QPel          : Yes
Format settings, GMC           : No warppoints
Format settings, Matrix        : Default (H.263)
Muxing mode                    : Packed bitstream
Codec ID                       : XVID
Codec ID/Hint                  : XviD
Duration                       : 1h 57mn
Bit rate                       : 1 499 Kbps
Width                          : 720 pixels
Height                         : 304 pixels
Display aspect ratio           : 2.35:1
Frame rate                     : 25.000 fps
Color space                    : YUV
Chroma subsampling             : 4:2:0
Bit depth                      : 8 bits
Scan type                      : Progressive
Compression mode               : Lossy
Bits/(Pixel*Frame)             : 0.274
Stream size                    : 1.23 GiB (77%)
Writing library                : XviD 1.2.1 (UTC 2008-12-04)

Audio
ID                             : 1
Format                         : AC-3
Format/Info                    : Audio Coding 3
Mode extension                 : CM (complete main)
Format settings, Endianness    : Big
Codec ID                       : 2000
Duration                       : 1h 57mn
Bit rate mode                  : Constant
Bit rate                       : 448 Kbps
Channel(s)                     : 6 channels
Channel positions              : Front: L C R, Side: L R, LFE
Sampling rate                  : 48.0 KHz
Bit depth                      : 16 bits
Compression mode               : Lossy
Stream size                    : 376 MiB (23%)
Alignment                      : Split accross interleaves
Interleave, duration           : 40 ms (1.00 video frame)
Interleave, preload duration   : 500 ms


Source: Retail DVD-R9

Video.: 720x304 @bitrate 1500 2pass
Audio.: English AC3 5.1 @448
Sample: Yes, included



ENCODE
This nice Movie with top cast hit US Cinemas last week and no US retail date planned yet,but it already reached retail in Europe, luckily for us it came along with an English Audio track, cant be more perfect



Dvd had great quality, did as usual, added brightness, sharpness, rgb and denoise.
came out very nice enjoy


PS. PAL runtime is 118 mins, which is 125 in ntsc as listed on imdb, nothing is missing.

PLOT
A thriller centered on a former Weather Underground activist who
goes on the run from a journalist who has discovered his identity.


CAST
Robert Redford   ...     Jim Grant / Nick Sloan
Shia LaBeouf     ...     Ben Shepard
Nick Nolte       ...     Donal Fitzgerald
Stanley Tucci    ...     Ray Fuller

IMDB:
 
http://www.imdb.com/title/tt1381404/

Screens:
 
http://img843.imageshack.us/img843/3690/cococcocoocococcoo.png
 
http://img694.imageshack.us/img694/6849/cococococcoo.png
 
http://img27.imageshack.us/img27/4976/cocococococcoo.png
 
http://img109.imageshack.us/img109/2240/68401317.png
 
http://img41.imageshack.us/img41/6050/cocoy.png
 
http://img838.imageshack.us/img838/9292/cococo.png
 
http://img109.imageshack.us/img109/4928/cocococcoo.png